<?xml version="1.0" encoding="UTF-8" standalone="no"?>
<svg width="712px" height="395px" viewBox="0 0 712 395" version="1.1" xmlns="http://www.w3.org/2000/svg" xmlns:xlink="http://www.w3.org/1999/xlink">
    <!-- Generator: Sketch 49.3 (51167) - http://www.bohemiancoding.com/sketch -->
    <title>Auralworth Logo - Horizontal</title>
    <desc>Created with Sketch.</desc>
    <defs></defs>
    <g id="Page-1" stroke="none" stroke-width="1" fill="none" fill-rule="evenodd">
        <g id="Auralworth-Logo---Horizontal" transform="translate(0.000000, 2.000000)">
            <path d="M35.460089,244.576004 L65.7981652,314.51118 L61.4641543,314.51118 L52.1066308,293.038126 L13.5930341,293.038126 L4.33401088,314.51118 L0,314.51118 L30.3380762,244.576004 L35.460089,244.576004 Z M32.8990826,248.713014 L15.3660386,289.098116 L50.4321266,289.098116 L32.8990826,248.713014 Z M128.233251,287.719112 L128.233251,244.576004 L132.173261,244.576004 L132.173261,287.719112 C132.173261,303.380652 119.466729,316.087183 103.80519,316.087183 C88.1436502,316.087183 75.4371183,303.380652 75.4371183,287.719112 L75.4371183,244.576004 L79.3771282,244.576004 L79.3771282,287.719112 C79.3771282,301.213646 90.3106557,312.147174 103.80519,312.147174 C117.299723,312.147174 128.233251,301.213646 128.233251,287.719112 Z M152.647241,244.576004 L183.379318,244.576004 C195.790349,244.576004 205.837375,254.623029 205.837375,267.03406 C205.837375,278.066088 197.957355,287.128111 187.516329,288.999615 L204.852372,314.51118 L200.12436,314.51118 L183.083817,289.393616 L156.587251,289.393616 L156.587251,314.51118 L152.647241,314.51118 L152.647241,244.576004 Z M183.379318,285.453607 C193.623344,285.453607 201.897365,277.278086 201.897365,267.03406 C201.897365,256.790035 193.623344,248.516014 183.379318,248.516014 L156.587251,248.516014 L156.587251,285.453607 L183.379318,285.453607 Z M247.981409,244.576004 L278.319486,314.51118 L273.985475,314.51118 L264.627951,293.038126 L226.114354,293.038126 L216.855331,314.51118 L212.52132,314.51118 L242.859396,244.576004 L247.981409,244.576004 Z M245.420403,248.713014 L227.887359,289.098116 L262.953447,289.098116 L245.420403,248.713014 Z M291.110447,314.51118 L291.110447,244.576004 L295.050456,244.576004 L295.050456,310.57117 L340.36057,310.57117 L340.36057,314.51118 L291.110447,314.51118 Z M359.160046,314.51118 L338.474994,244.576004 L342.612005,244.576004 L361.228552,307.517662 L379.943598,244.576004 L384.080609,244.576004 L402.795656,307.517662 L421.412203,244.576004 L425.549213,244.576004 L404.864161,314.51118 L400.727151,314.51118 L382.012104,251.569522 L363.297057,314.51118 L359.160046,314.51118 Z M433.513662,279.543592 C433.513662,259.351041 449.864703,243 470.057254,243 C490.249804,243 506.600845,259.351041 506.600845,279.543592 C506.600845,299.736142 490.249804,316.087183 470.057254,316.087183 C449.864703,316.087183 433.513662,299.736142 433.513662,279.543592 Z M437.453672,279.543592 C437.453672,297.569137 452.031708,312.147174 470.057254,312.147174 C488.082799,312.147174 502.660835,297.569137 502.660835,279.543592 C502.660835,261.518046 488.082799,246.94001 470.057254,246.94001 C452.031708,246.94001 437.453672,261.518046 437.453672,279.543592 Z M523.036316,244.576004 L553.768393,244.576004 C566.179424,244.576004 576.226449,254.623029 576.226449,267.03406 C576.226449,278.066088 568.346429,287.128111 557.905403,288.999615 L575.241447,314.51118 L570.513435,314.51118 L553.472892,289.393616 L526.976325,289.393616 L526.976325,314.51118 L523.036316,314.51118 L523.036316,244.576004 Z M553.768393,285.453607 C564.012418,285.453607 572.286439,277.278086 572.286439,267.03406 C572.286439,256.790035 564.012418,248.516014 553.768393,248.516014 L526.976325,248.516014 L526.976325,285.453607 L553.768393,285.453607 Z M582.122393,244.576004 L641.222541,244.576004 L641.222541,248.516014 L613.642472,248.516014 L613.642472,314.51118 L609.702462,314.51118 L609.702462,248.516014 L582.122393,248.516014 L582.122393,244.576004 Z M707.006635,314.51118 L707.006635,281.513597 L658.150513,281.513597 L658.150513,314.51118 L654.210503,314.51118 L654.210503,244.576004 L658.150513,244.576004 L658.150513,277.573587 L707.006635,277.573587 L707.006635,244.576004 L710.946645,244.576004 L710.946645,314.51118 L707.006635,314.51118 Z" id="AURALWORTH" fill="#FFFFFF"></path>
            <path d="M30.394362,331.350861 L56.3984273,391.295297 L52.6835608,391.295297 L44.6628264,372.889822 L11.6511721,372.889822 L3.71486647,391.295297 L0,391.295297 L26.0040653,331.350861 L30.394362,331.350861 Z M28.1992137,334.896869 L13.1708902,369.512671 L43.2275371,369.512671 L28.1992137,334.896869 Z M141.024211,383.612277 C135.367483,389.184577 127.600035,392.646157 118.988299,392.646157 C101.680398,392.646157 87.6652201,378.630979 87.6652201,361.323079 C87.6652201,344.015178 101.680398,330 118.988299,330 C127.600035,330 135.367483,333.46158 141.024211,339.03388 L138.660205,341.397886 C133.594478,336.416588 126.671318,333.377151 118.988299,333.377151 C103.537831,333.377151 91.0423714,345.872611 91.0423714,361.323079 C91.0423714,376.773546 103.537831,389.269006 118.988299,389.269006 C126.671318,389.269006 133.594478,386.22957 138.660205,381.248272 L141.024211,383.612277 Z M174.739439,361.323079 C174.739439,344.015178 188.754617,330 206.062517,330 C223.370418,330 237.385596,344.015178 237.385596,361.323079 C237.385596,378.630979 223.370418,392.646157 206.062517,392.646157 C188.754617,392.646157 174.739439,378.630979 174.739439,361.323079 Z M178.11659,361.323079 C178.11659,376.773546 190.61205,389.269006 206.062517,389.269006 C221.512985,389.269006 234.008445,376.773546 234.008445,361.323079 C234.008445,345.872611 221.512985,333.377151 206.062517,333.377151 C190.61205,333.377151 178.11659,345.872611 178.11659,361.323079 Z M322.517953,368.330668 L322.517953,331.350861 L325.895104,331.350861 L325.895104,368.330668 C325.895104,381.754844 315.003791,392.646157 301.579614,392.646157 C288.155438,392.646157 277.264125,381.754844 277.264125,368.330668 L277.264125,331.350861 L280.641276,331.350861 L280.641276,368.330668 C280.641276,379.897411 290.012871,389.269006 301.579614,389.269006 C313.146358,389.269006 322.517953,379.897411 322.517953,368.330668 Z M365.351489,375.675972 L368.72864,375.675972 C368.72864,383.190134 377.593662,389.269006 388.569404,389.269006 C399.545146,389.269006 408.410168,383.865564 408.410168,375.675972 C408.410168,367.655237 399.545146,363.771513 388.569404,362.082938 C376.749374,360.225504 367.040064,355.750779 367.040064,346.041469 C367.040064,336.332159 376.664946,330 388.569404,330 C400.473863,330 410.098744,337.176447 410.098744,346.041469 L406.721593,346.041469 C406.721593,339.03388 398.616429,333.377151 388.569404,333.377151 C378.522379,333.377151 370.417216,338.35845 370.417216,346.041469 C370.417216,353.555631 378.944523,357.270497 388.569404,358.705786 C401.402579,360.647648 411.78732,365.460089 411.78732,375.675972 C411.78732,385.891855 401.402579,392.646157 388.569404,392.646157 C375.736229,392.646157 365.351489,385.047567 365.351489,375.675972 Z M444.151686,331.350861 L494.808957,331.350861 L494.808957,334.728012 L471.168897,334.728012 L471.168897,391.295297 L467.791746,391.295297 L467.791746,334.728012 L444.151686,334.728012 L444.151686,331.350861 Z M532.576766,391.295297 L532.576766,331.350861 L535.953917,331.350861 L535.953917,391.295297 L532.576766,391.295297 Z M630.035725,383.612277 C624.378996,389.184577 616.611548,392.646157 607.999812,392.646157 C590.691912,392.646157 576.676733,378.630979 576.676733,361.323079 C576.676733,344.015178 590.691912,330 607.999812,330 C616.611548,330 624.378996,333.46158 630.035725,339.03388 L627.671719,341.397886 C622.605992,336.416588 615.682831,333.377151 607.999812,333.377151 C592.549345,333.377151 580.053885,345.872611 580.053885,361.323079 C580.053885,376.773546 592.549345,389.269006 607.999812,389.269006 C615.682831,389.269006 622.605992,386.22957 627.671719,381.248272 L630.035725,383.612277 Z M664.932955,375.675972 L668.310106,375.675972 C668.310106,383.190134 677.175129,389.269006 688.150871,389.269006 C699.126612,389.269006 707.991635,383.865564 707.991635,375.675972 C707.991635,367.655237 699.126612,363.771513 688.150871,362.082938 C676.330841,360.225504 666.621531,355.750779 666.621531,346.041469 C666.621531,336.332159 676.246412,330 688.150871,330 C700.055329,330 709.68021,337.176447 709.68021,346.041469 L706.303059,346.041469 C706.303059,339.03388 698.197896,333.377151 688.150871,333.377151 C678.103845,333.377151 669.998682,338.35845 669.998682,346.041469 C669.998682,353.555631 678.525989,357.270497 688.150871,358.705786 C700.984046,360.647648 711.368786,365.460089 711.368786,375.675972 C711.368786,385.891855 700.984046,392.646157 688.150871,392.646157 C675.317695,392.646157 664.932955,385.047567 664.932955,375.675972 Z" id="ACOUSTICS" fill="#FFFFFF"></path>
            <g id="20180406-Left-Logo-with-Right-Text-Black-(1)" transform="translate(249.000000, 0.000000)" stroke="#FFFFFF" stroke-width="4">
                <path d="M0,0 C0,0 81,20.7999764 81,104.000039 C81,187.200102 0,208 0,208" id="path3715"></path>
                <path d="M105,0 L105,208" id="path3749"></path>
                <path d="M0,32 C0,32 53,46.5999764 53,105.000039 C53,163.400102 0,178 0,178" id="path3715-2"></path>
                <path d="M0,62 C0,62 27,70.3999921 27,104.00004 C27,137.600008 0,146 0,146" id="path3715-2-2"></path>
                <path d="M212,0 C212,0 131,0 131,83.1999843 C131,166.400047 212,208 212,208" id="path3715-4"></path>
                <path d="M164.759311,93 C164.759311,93 149.730789,66.3047034 168.227087,41.5527042 C186.723346,16.8007049 211,31.1199629 211,31.1199629" id="path3715-2-2-7"></path>
            </g>
        </g>
    </g>
</svg>